<svg width="20" height="20" viewBox="0 0 20 20" fill="none" xmlns="http://www.w3.org/2000/svg">
<path fill-rule="evenodd" clip-rule="evenodd" d="M0.749208 0.749208C0.948427 0.550237 1.21848 0.438477 1.50004 0.438477C1.78161 0.438477 2.05166 0.550237 2.25088 0.749208L19.2509 17.7492C19.3553 17.8465 19.439 17.9638 19.4971 18.0941C19.5551 18.2244 19.5864 18.3651 19.5889 18.5078C19.5914 18.6505 19.5652 18.7922 19.5117 18.9245C19.4583 19.0568 19.3787 19.177 19.2778 19.2778C19.177 19.3787 19.0568 19.4583 18.9245 19.5117C18.7922 19.5652 18.6505 19.5914 18.5078 19.5889C18.3651 19.5864 18.2244 19.5551 18.0941 19.4971C17.9638 19.439 17.8465 19.3553 17.7492 19.2509L0.749208 2.25088C0.550237 2.05166 0.438477 1.78161 0.438477 1.50004C0.438477 1.21848 0.550237 0.948427 0.749208 0.749208Z" fill="#3169F2"/>
<path fill-rule="evenodd" clip-rule="evenodd" d="M19.2507 0.749208C19.4497 0.948427 19.5614 1.21848 19.5614 1.50004C19.5614 1.78161 19.4497 2.05166 19.2507 2.25088L2.2507 19.2509C2.04928 19.4386 1.78288 19.5407 1.50762 19.5359C1.23236 19.531 0.969735 19.4195 0.775066 19.2248C0.580398 19.0302 0.468889 18.7675 0.464033 18.4923C0.459176 18.217 0.56135 17.9506 0.74903 17.7492L17.749 0.749208C17.9482 0.550237 18.2183 0.438477 18.4999 0.438477C18.7814 0.438477 19.0515 0.550237 19.2507 0.749208Z" fill="#3169F2"/>
</svg>
