<svg width="1440" height="1024" viewBox="0 0 1440 1024" fill="none" xmlns="http://www.w3.org/2000/svg">
<mask id="path-1-inside-1_19_158" fill="white">
<path d="M-93 48.1882C-93 21.5746 -71.5887 0 -45.1765 0H62.4265C88.8387 0 110.25 21.5746 110.25 48.1882V156.612C110.25 183.225 88.8387 204.8 62.4265 204.8H-45.1765C-71.5887 204.8 -93 183.225 -93 156.612V48.1882Z"/>
<path d="M110.25 48.1882C110.25 21.5746 131.661 0 158.074 0H265.676C292.089 0 313.5 21.5746 313.5 48.1882V156.612C313.5 183.225 292.089 204.8 265.676 204.8H158.074C131.661 204.8 110.25 183.225 110.25 156.612V48.1882Z"/>
<path d="M313.5 48.1882C313.5 21.5746 334.911 0 361.324 0H468.927C495.339 0 516.75 21.5746 516.75 48.1882V156.612C516.75 183.225 495.339 204.8 468.927 204.8H361.324C334.911 204.8 313.5 183.225 313.5 156.612V48.1882Z"/>
<path d="M516.75 48.1882C516.75 21.5746 538.161 0 564.573 0H672.176C698.589 0 720 21.5746 720 48.1882V156.612C720 183.225 698.589 204.8 672.176 204.8H564.573C538.161 204.8 516.75 183.225 516.75 156.612V48.1882Z"/>
<path d="M720 48.1882C720 21.5746 741.411 0 767.823 0H875.426C901.839 0 923.25 21.5746 923.25 48.1882V156.612C923.25 183.225 901.839 204.8 875.426 204.8H767.823C741.411 204.8 720 183.225 720 156.612V48.1882Z"/>
<path d="M923.25 48.1882C923.25 21.5746 944.661 0 971.074 0H1078.68C1105.09 0 1126.5 21.5746 1126.5 48.1882V156.612C1126.5 183.225 1105.09 204.8 1078.68 204.8H971.074C944.661 204.8 923.25 183.225 923.25 156.612V48.1882Z"/>
<path d="M1126.5 48.1882C1126.5 21.5746 1147.91 0 1174.32 0H1281.93C1308.34 0 1329.75 21.5746 1329.75 48.1882V156.612C1329.75 183.225 1308.34 204.8 1281.93 204.8H1174.32C1147.91 204.8 1126.5 183.225 1126.5 156.612V48.1882Z"/>
<path d="M1329.75 48.1882C1329.75 21.5746 1351.16 0 1377.57 0H1485.18C1511.59 0 1533 21.5746 1533 48.1882V156.612C1533 183.225 1511.59 204.8 1485.18 204.8H1377.57C1351.16 204.8 1329.75 183.225 1329.75 156.612V48.1882Z"/>
<path d="M-93 252.988C-93 226.375 -71.5887 204.8 -45.1765 204.8H62.4265C88.8387 204.8 110.25 226.375 110.25 252.988V361.412C110.25 388.025 88.8387 409.6 62.4265 409.6H-45.1765C-71.5887 409.6 -93 388.025 -93 361.412V252.988Z"/>
<path d="M110.25 252.988C110.25 226.375 131.661 204.8 158.074 204.8H265.676C292.089 204.8 313.5 226.375 313.5 252.988V361.412C313.5 388.025 292.089 409.6 265.676 409.6H158.074C131.661 409.6 110.25 388.025 110.25 361.412V252.988Z"/>
<path d="M313.5 252.988C313.5 226.375 334.911 204.8 361.324 204.8H468.927C495.339 204.8 516.75 226.375 516.75 252.988V361.412C516.75 388.025 495.339 409.6 468.927 409.6H361.324C334.911 409.6 313.5 388.025 313.5 361.412V252.988Z"/>
<path d="M516.75 252.988C516.75 226.375 538.161 204.8 564.573 204.8H672.176C698.589 204.8 720 226.375 720 252.988V361.412C720 388.025 698.589 409.6 672.176 409.6H564.573C538.161 409.6 516.75 388.025 516.75 361.412V252.988Z"/>
<path d="M720 252.988C720 226.375 741.411 204.8 767.823 204.8H875.426C901.839 204.8 923.25 226.375 923.25 252.988V361.412C923.25 388.025 901.839 409.6 875.426 409.6H767.823C741.411 409.6 720 388.025 720 361.412V252.988Z"/>
<path d="M923.25 252.988C923.25 226.375 944.661 204.8 971.074 204.8H1078.68C1105.09 204.8 1126.5 226.375 1126.5 252.988V361.412C1126.5 388.025 1105.09 409.6 1078.68 409.6H971.074C944.661 409.6 923.25 388.025 923.25 361.412V252.988Z"/>
<path d="M1126.5 252.988C1126.5 226.375 1147.91 204.8 1174.32 204.8H1281.93C1308.34 204.8 1329.75 226.375 1329.75 252.988V361.412C1329.75 388.025 1308.34 409.6 1281.93 409.6H1174.32C1147.91 409.6 1126.5 388.025 1126.5 361.412V252.988Z"/>
<path d="M1329.75 252.988C1329.75 226.375 1351.16 204.8 1377.57 204.8H1485.18C1511.59 204.8 1533 226.375 1533 252.988V361.412C1533 388.025 1511.59 409.6 1485.18 409.6H1377.57C1351.16 409.6 1329.75 388.025 1329.75 361.412V252.988Z"/>
<path d="M-93 457.788C-93 431.175 -71.5887 409.6 -45.1765 409.6H62.4265C88.8387 409.6 110.25 431.175 110.25 457.788V566.212C110.25 592.825 88.8387 614.4 62.4265 614.4H-45.1765C-71.5887 614.4 -93 592.825 -93 566.212V457.788Z"/>
<path d="M110.25 457.788C110.25 431.175 131.661 409.6 158.074 409.6H265.676C292.089 409.6 313.5 431.175 313.5 457.788V566.212C313.5 592.825 292.089 614.4 265.676 614.4H158.074C131.661 614.4 110.25 592.825 110.25 566.212V457.788Z"/>
<path d="M313.5 457.788C313.5 431.175 334.911 409.6 361.324 409.6H468.927C495.339 409.6 516.75 431.175 516.75 457.788V566.212C516.75 592.825 495.339 614.4 468.927 614.4H361.324C334.911 614.4 313.5 592.825 313.5 566.212V457.788Z"/>
<path d="M516.75 457.788C516.75 431.175 538.161 409.6 564.573 409.6H672.176C698.589 409.6 720 431.175 720 457.788V566.212C720 592.825 698.589 614.4 672.176 614.4H564.573C538.161 614.4 516.75 592.825 516.75 566.212V457.788Z"/>
<path d="M720 457.788C720 431.175 741.411 409.6 767.823 409.6H875.426C901.839 409.6 923.25 431.175 923.25 457.788V566.212C923.25 592.825 901.839 614.4 875.426 614.4H767.823C741.411 614.4 720 592.825 720 566.212V457.788Z"/>
<path d="M923.25 457.788C923.25 431.175 944.661 409.6 971.074 409.6H1078.68C1105.09 409.6 1126.5 431.175 1126.5 457.788V566.212C1126.5 592.825 1105.09 614.4 1078.68 614.4H971.074C944.661 614.4 923.25 592.825 923.25 566.212V457.788Z"/>
<path d="M1126.5 457.788C1126.5 431.175 1147.91 409.6 1174.32 409.6H1281.93C1308.34 409.6 1329.75 431.175 1329.75 457.788V566.212C1329.75 592.825 1308.34 614.4 1281.93 614.4H1174.32C1147.91 614.4 1126.5 592.825 1126.5 566.212V457.788Z"/>
<path d="M1329.75 457.788C1329.75 431.175 1351.16 409.6 1377.57 409.6H1485.18C1511.59 409.6 1533 431.175 1533 457.788V566.212C1533 592.825 1511.59 614.4 1485.18 614.4H1377.57C1351.16 614.4 1329.75 592.825 1329.75 566.212V457.788Z"/>
<path d="M-93 662.588C-93 635.975 -71.5887 614.4 -45.1765 614.4H62.4265C88.8387 614.4 110.25 635.975 110.25 662.588V771.012C110.25 797.625 88.8387 819.2 62.4265 819.2H-45.1765C-71.5887 819.2 -93 797.625 -93 771.012V662.588Z"/>
<path d="M110.25 662.588C110.25 635.975 131.661 614.4 158.074 614.4H265.676C292.089 614.4 313.5 635.975 313.5 662.588V771.012C313.5 797.625 292.089 819.2 265.676 819.2H158.074C131.661 819.2 110.25 797.625 110.25 771.012V662.588Z"/>
<path d="M313.5 662.588C313.5 635.975 334.911 614.4 361.324 614.4H468.927C495.339 614.4 516.75 635.975 516.75 662.588V771.012C516.75 797.625 495.339 819.2 468.927 819.2H361.324C334.911 819.2 313.5 797.625 313.5 771.012V662.588Z"/>
<path d="M516.75 662.588C516.75 635.975 538.161 614.4 564.573 614.4H672.176C698.589 614.4 720 635.975 720 662.588V771.012C720 797.625 698.589 819.2 672.176 819.2H564.573C538.161 819.2 516.75 797.625 516.75 771.012V662.588Z"/>
<path d="M720 662.588C720 635.975 741.411 614.4 767.823 614.4H875.426C901.839 614.4 923.25 635.975 923.25 662.588V771.012C923.25 797.625 901.839 819.2 875.426 819.2H767.823C741.411 819.2 720 797.625 720 771.012V662.588Z"/>
<path d="M923.25 662.588C923.25 635.975 944.661 614.4 971.074 614.4H1078.68C1105.09 614.4 1126.5 635.975 1126.5 662.588V771.012C1126.5 797.625 1105.09 819.2 1078.68 819.2H971.074C944.661 819.2 923.25 797.625 923.25 771.012V662.588Z"/>
<path d="M1126.5 662.588C1126.5 635.975 1147.91 614.4 1174.32 614.4H1281.93C1308.34 614.4 1329.75 635.975 1329.75 662.588V771.012C1329.75 797.625 1308.34 819.2 1281.93 819.2H1174.32C1147.91 819.2 1126.5 797.625 1126.5 771.012V662.588Z"/>
<path d="M1329.75 662.588C1329.75 635.975 1351.16 614.4 1377.57 614.4H1485.18C1511.59 614.4 1533 635.975 1533 662.588V771.012C1533 797.625 1511.59 819.2 1485.18 819.2H1377.57C1351.16 819.2 1329.75 797.625 1329.75 771.012V662.588Z"/>
<path d="M-93 867.388C-93 840.775 -71.5887 819.2 -45.1765 819.2H62.4265C88.8387 819.2 110.25 840.775 110.25 867.388V975.812C110.25 1002.43 88.8387 1024 62.4265 1024H-45.1765C-71.5887 1024 -93 1002.43 -93 975.812V867.388Z"/>
<path d="M110.25 867.388C110.25 840.775 131.661 819.2 158.074 819.2H265.676C292.089 819.2 313.5 840.775 313.5 867.388V975.812C313.5 1002.43 292.089 1024 265.676 1024H158.074C131.661 1024 110.25 1002.43 110.25 975.812V867.388Z"/>
<path d="M313.5 867.388C313.5 840.775 334.911 819.2 361.324 819.2H468.927C495.339 819.2 516.75 840.775 516.75 867.388V975.812C516.75 1002.43 495.339 1024 468.927 1024H361.324C334.911 1024 313.5 1002.43 313.5 975.812V867.388Z"/>
<path d="M516.75 867.388C516.75 840.775 538.161 819.2 564.573 819.2H672.176C698.589 819.2 720 840.775 720 867.388V975.812C720 1002.43 698.589 1024 672.176 1024H564.573C538.161 1024 516.75 1002.43 516.75 975.812V867.388Z"/>
<path d="M720 867.388C720 840.775 741.411 819.2 767.823 819.2H875.426C901.839 819.2 923.25 840.775 923.25 867.388V975.812C923.25 1002.43 901.839 1024 875.426 1024H767.823C741.411 1024 720 1002.43 720 975.812V867.388Z"/>
<path d="M923.25 867.388C923.25 840.775 944.661 819.2 971.074 819.2H1078.68C1105.09 819.2 1126.5 840.775 1126.5 867.388V975.812C1126.5 1002.43 1105.09 1024 1078.68 1024H971.074C944.661 1024 923.25 1002.43 923.25 975.812V867.388Z"/>
<path d="M1126.5 867.388C1126.5 840.775 1147.91 819.2 1174.32 819.2H1281.93C1308.34 819.2 1329.75 840.775 1329.75 867.388V975.812C1329.75 1002.43 1308.34 1024 1281.93 1024H1174.32C1147.91 1024 1126.5 1002.43 1126.5 975.812V867.388Z"/>
<path d="M1329.75 867.388C1329.75 840.775 1351.16 819.2 1377.57 819.2H1485.18C1511.59 819.2 1533 840.775 1533 867.388V975.812C1533 1002.43 1511.59 1024 1485.18 1024H1377.57C1351.16 1024 1329.75 1002.43 1329.75 975.812V867.388Z"/>
</mask>
<path d="M109.75 48.1882V156.612H110.75V48.1882H109.75ZM62.4265 204.3H-45.1765V205.3H62.4265V204.3ZM313 48.1882V156.612H314V48.1882H313ZM265.676 204.3H158.074V205.3H265.676V204.3ZM516.25 48.1882V156.612H517.25V48.1882H516.25ZM468.927 204.3H361.324V205.3H468.927V204.3ZM719.5 48.1882V156.612H720.5V48.1882H719.5ZM672.176 204.3H564.573V205.3H672.176V204.3ZM922.75 48.1882V156.612H923.75V48.1882H922.75ZM875.426 204.3H767.823V205.3H875.426V204.3ZM1126 48.1882V156.612H1127V48.1882H1126ZM1078.68 204.3H971.074V205.3H1078.68V204.3ZM1329.25 48.1882V156.612H1330.25V48.1882H1329.25ZM1281.93 204.3H1174.32V205.3H1281.93V204.3ZM1485.18 204.3H1377.57V205.3H1485.18V204.3ZM109.75 252.988V361.412H110.75V252.988H109.75ZM62.4265 409.1H-45.1765V410.1H62.4265V409.1ZM313 252.988V361.412H314V252.988H313ZM265.676 409.1H158.074V410.1H265.676V409.1ZM516.25 252.988V361.412H517.25V252.988H516.25ZM468.927 409.1H361.324V410.1H468.927V409.1ZM719.5 252.988V361.412H720.5V252.988H719.5ZM672.176 409.1H564.573V410.1H672.176V409.1ZM922.75 252.988V361.412H923.75V252.988H922.75ZM875.426 409.1H767.823V410.1H875.426V409.1ZM1126 252.988V361.412H1127V252.988H1126ZM1078.68 409.1H971.074V410.1H1078.68V409.1ZM1329.25 252.988V361.412H1330.25V252.988H1329.25ZM1281.93 409.1H1174.32V410.1H1281.93V409.1ZM1485.18 409.1H1377.57V410.1H1485.18V409.1ZM109.75 457.788V566.212H110.75V457.788H109.75ZM62.4265 613.9H-45.1765V614.9H62.4265V613.9ZM313 457.788V566.212H314V457.788H313ZM265.676 613.9H158.074V614.9H265.676V613.9ZM516.25 457.788V566.212H517.25V457.788H516.25ZM468.927 613.9H361.324V614.9H468.927V613.9ZM719.5 457.788V566.212H720.5V457.788H719.5ZM672.176 613.9H564.573V614.9H672.176V613.9ZM922.75 457.788V566.212H923.75V457.788H922.75ZM875.426 613.9H767.823V614.9H875.426V613.9ZM1126 457.788V566.212H1127V457.788H1126ZM1078.68 613.9H971.074V614.9H1078.68V613.9ZM1329.25 457.788V566.212H1330.25V457.788H1329.25ZM1281.93 613.9H1174.32V614.9H1281.93V613.9ZM1485.18 613.9H1377.57V614.9H1485.18V613.9ZM109.75 662.588V771.012H110.75V662.588H109.75ZM62.4265 818.7H-45.1765V819.7H62.4265V818.7ZM313 662.588V771.012H314V662.588H313ZM265.676 818.7H158.074V819.7H265.676V818.7ZM516.25 662.588V771.012H517.25V662.588H516.25ZM468.927 818.7H361.324V819.7H468.927V818.7ZM719.5 662.588V771.012H720.5V662.588H719.5ZM672.176 818.7H564.573V819.7H672.176V818.7ZM922.75 662.588V771.012H923.75V662.588H922.75ZM875.426 818.7H767.823V819.7H875.426V818.7ZM1126 662.588V771.012H1127V662.588H1126ZM1078.68 818.7H971.074V819.7H1078.68V818.7ZM1329.25 662.588V771.012H1330.25V662.588H1329.25ZM1281.93 818.7H1174.32V819.7H1281.93V818.7ZM1485.18 818.7H1377.57V819.7H1485.18V818.7ZM109.75 867.388V975.812H110.75V867.388H109.75ZM313 867.388V975.812H314V867.388H313ZM516.25 867.388V975.812H517.25V867.388H516.25ZM719.5 867.388V975.812H720.5V867.388H719.5ZM922.75 867.388V975.812H923.75V867.388H922.75ZM1126 867.388V975.812H1127V867.388H1126ZM1329.25 867.388V975.812H1330.25V867.388H1329.25ZM-45.1765 1H62.4265V-1H-45.1765V1ZM-92 156.612V48.1882H-94V156.612H-92ZM-45.1765 203.8C-71.0292 203.8 -92 182.68 -92 156.612H-94C-94 183.771 -72.1481 205.8 -45.1765 205.8V203.8ZM109.25 156.612C109.25 182.68 88.2792 203.8 62.4265 203.8V205.8C89.3981 205.8 111.25 183.771 111.25 156.612H109.25ZM62.4265 1C88.2793 1 109.25 22.1197 109.25 48.1882H111.25C111.25 21.0295 89.3981 -1 62.4265 -1V1ZM-45.1765 -1C-72.1481 -1 -94 21.0295 -94 48.1882H-92C-92 22.1197 -71.0292 1 -45.1765 1V-1ZM158.074 1H265.676V-1H158.074V1ZM158.074 203.8C132.221 203.8 111.25 182.68 111.25 156.612H109.25C109.25 183.771 131.102 205.8 158.074 205.8V203.8ZM312.5 156.612C312.5 182.68 291.529 203.8 265.676 203.8V205.8C292.648 205.8 314.5 183.771 314.5 156.612H312.5ZM265.676 1C291.529 1 312.5 22.1197 312.5 48.1882H314.5C314.5 21.0295 292.648 -1 265.676 -1V1ZM158.074 -1C131.102 -1 109.25 21.0295 109.25 48.1882H111.25C111.25 22.1197 132.221 1 158.074 1V-1ZM361.324 1H468.927V-1H361.324V1ZM361.324 203.8C335.471 203.8 314.5 182.68 314.5 156.612H312.5C312.5 183.771 334.352 205.8 361.324 205.8V203.8ZM515.75 156.612C515.75 182.68 494.779 203.8 468.927 203.8V205.8C495.898 205.8 517.75 183.771 517.75 156.612H515.75ZM468.927 1C494.779 1 515.75 22.1197 515.75 48.1882H517.75C517.75 21.0295 495.898 -1 468.927 -1V1ZM361.324 -1C334.352 -1 312.5 21.0295 312.5 48.1882H314.5C314.5 22.1197 335.471 1 361.324 1V-1ZM564.573 1H672.176V-1H564.573V1ZM564.573 203.8C538.721 203.8 517.75 182.68 517.75 156.612H515.75C515.75 183.771 537.602 205.8 564.573 205.8V203.8ZM719 156.612C719 182.68 698.029 203.8 672.176 203.8V205.8C699.148 205.8 721 183.771 721 156.612H719ZM672.176 1C698.029 1 719 22.1197 719 48.1882H721C721 21.0295 699.148 -1 672.176 -1V1ZM564.573 -1C537.602 -1 515.75 21.0295 515.75 48.1882H517.75C517.75 22.1197 538.721 1 564.573 1V-1ZM767.823 1H875.426V-1H767.823V1ZM767.823 203.8C741.971 203.8 721 182.68 721 156.612H719C719 183.771 740.852 205.8 767.823 205.8V203.8ZM922.25 156.612C922.25 182.68 901.279 203.8 875.426 203.8V205.8C902.398 205.8 924.25 183.771 924.25 156.612H922.25ZM875.426 1C901.279 1 922.25 22.1197 922.25 48.1882H924.25C924.25 21.0295 902.398 -1 875.426 -1V1ZM767.823 -1C740.852 -1 719 21.0295 719 48.1882H721C721 22.1197 741.971 1 767.823 1V-1ZM971.074 1H1078.68V-1H971.074V1ZM971.074 203.8C945.221 203.8 924.25 182.68 924.25 156.612H922.25C922.25 183.771 944.102 205.8 971.074 205.8V203.8ZM1125.5 156.612C1125.5 182.68 1104.53 203.8 1078.68 203.8V205.8C1105.65 205.8 1127.5 183.771 1127.5 156.612H1125.5ZM1078.68 1C1104.53 1 1125.5 22.1197 1125.5 48.1882H1127.5C1127.5 21.0295 1105.65 -1 1078.68 -1V1ZM971.074 -1C944.102 -1 922.25 21.0295 922.25 48.1882H924.25C924.25 22.1197 945.221 1 971.074 1V-1ZM1174.32 1H1281.93V-1H1174.32V1ZM1174.32 203.8C1148.47 203.8 1127.5 182.68 1127.5 156.612H1125.5C1125.5 183.771 1147.35 205.8 1174.32 205.8V203.8ZM1328.75 156.612C1328.75 182.68 1307.78 203.8 1281.93 203.8V205.8C1308.9 205.8 1330.75 183.771 1330.75 156.612H1328.75ZM1281.93 1C1307.78 1 1328.75 22.1197 1328.75 48.1882H1330.75C1330.75 21.0295 1308.9 -1 1281.93 -1V1ZM1174.32 -1C1147.35 -1 1125.5 21.0295 1125.5 48.1882H1127.5C1127.5 22.1197 1148.47 1 1174.32 1V-1ZM1377.57 1H1485.18V-1H1377.57V1ZM1532 48.1882V156.612H1534V48.1882H1532ZM1377.57 203.8C1351.72 203.8 1330.75 182.68 1330.75 156.612H1328.75C1328.75 183.771 1350.6 205.8 1377.57 205.8V203.8ZM1532 156.612C1532 182.68 1511.03 203.8 1485.18 203.8V205.8C1512.15 205.8 1534 183.771 1534 156.612H1532ZM1485.18 1C1511.03 1 1532 22.1197 1532 48.1882H1534C1534 21.0295 1512.15 -1 1485.18 -1V1ZM1377.57 -1C1350.6 -1 1328.75 21.0295 1328.75 48.1882H1330.75C1330.75 22.1197 1351.72 1 1377.57 1V-1ZM-92 361.412V252.988H-94V361.412H-92ZM-45.1765 408.6C-71.0292 408.6 -92 387.48 -92 361.412H-94C-94 388.571 -72.1481 410.6 -45.1765 410.6V408.6ZM109.25 361.412C109.25 387.48 88.2792 408.6 62.4265 408.6V410.6C89.3981 410.6 111.25 388.571 111.25 361.412H109.25ZM62.4265 205.8C88.2793 205.8 109.25 226.92 109.25 252.988H111.25C111.25 225.83 89.3981 203.8 62.4265 203.8V205.8ZM-45.1765 203.8C-72.1481 203.8 -94 225.83 -94 252.988H-92C-92 226.92 -71.0292 205.8 -45.1765 205.8V203.8ZM158.074 408.6C132.221 408.6 111.25 387.48 111.25 361.412H109.25C109.25 388.571 131.102 410.6 158.074 410.6V408.6ZM312.5 361.412C312.5 387.48 291.529 408.6 265.676 408.6V410.6C292.648 410.6 314.5 388.571 314.5 361.412H312.5ZM265.676 205.8C291.529 205.8 312.5 226.92 312.5 252.988H314.5C314.5 225.83 292.648 203.8 265.676 203.8V205.8ZM158.074 203.8C131.102 203.8 109.25 225.83 109.25 252.988H111.25C111.25 226.92 132.221 205.8 158.074 205.8V203.8ZM361.324 408.6C335.471 408.6 314.5 387.48 314.5 361.412H312.5C312.5 388.571 334.352 410.6 361.324 410.6V408.6ZM515.75 361.412C515.75 387.48 494.779 408.6 468.927 408.6V410.6C495.898 410.6 517.75 388.571 517.75 361.412H515.75ZM468.927 205.8C494.779 205.8 515.75 226.92 515.75 252.988H517.75C517.75 225.83 495.898 203.8 468.927 203.8V205.8ZM361.324 203.8C334.352 203.8 312.5 225.83 312.5 252.988H314.5C314.5 226.92 335.471 205.8 361.324 205.8V203.8ZM564.573 408.6C538.721 408.6 517.75 387.48 517.75 361.412H515.75C515.75 388.571 537.602 410.6 564.573 410.6V408.6ZM719 361.412C719 387.48 698.029 408.6 672.176 408.6V410.6C699.148 410.6 721 388.571 721 361.412H719ZM672.176 205.8C698.029 205.8 719 226.92 719 252.988H721C721 225.83 699.148 203.8 672.176 203.8V205.8ZM564.573 203.8C537.602 203.8 515.75 225.83 515.75 252.988H517.75C517.75 226.92 538.721 205.8 564.573 205.8V203.8ZM767.823 408.6C741.971 408.6 721 387.48 721 361.412H719C719 388.571 740.852 410.6 767.823 410.6V408.6ZM922.25 361.412C922.25 387.48 901.279 408.6 875.426 408.6V410.6C902.398 410.6 924.25 388.571 924.25 361.412H922.25ZM875.426 205.8C901.279 205.8 922.25 226.92 922.25 252.988H924.25C924.25 225.83 902.398 203.8 875.426 203.8V205.8ZM767.823 203.8C740.852 203.8 719 225.83 719 252.988H721C721 226.92 741.971 205.8 767.823 205.8V203.8ZM971.074 408.6C945.221 408.6 924.25 387.48 924.25 361.412H922.25C922.25 388.571 944.102 410.6 971.074 410.6V408.6ZM1125.5 361.412C1125.5 387.48 1104.53 408.6 1078.68 408.6V410.6C1105.65 410.6 1127.5 388.571 1127.5 361.412H1125.5ZM1078.68 205.8C1104.53 205.8 1125.5 226.92 1125.5 252.988H1127.5C1127.5 225.83 1105.65 203.8 1078.68 203.8V205.8ZM971.074 203.8C944.102 203.8 922.25 225.83 922.25 252.988H924.25C924.25 226.92 945.221 205.8 971.074 205.8V203.8ZM1174.32 408.6C1148.47 408.6 1127.5 387.48 1127.5 361.412H1125.5C1125.5 388.571 1147.35 410.6 1174.32 410.6V408.6ZM1328.75 361.412C1328.75 387.48 1307.78 408.6 1281.93 408.6V410.6C1308.9 410.6 1330.75 388.571 1330.75 361.412H1328.75ZM1281.93 205.8C1307.78 205.8 1328.75 226.92 1328.75 252.988H1330.75C1330.75 225.83 1308.9 203.8 1281.93 203.8V205.8ZM1174.32 203.8C1147.35 203.8 1125.5 225.83 1125.5 252.988H1127.5C1127.5 226.92 1148.47 205.8 1174.32 205.8V203.8ZM1532 252.988V361.412H1534V252.988H1532ZM1377.57 408.6C1351.72 408.6 1330.75 387.48 1330.75 361.412H1328.75C1328.75 388.571 1350.6 410.6 1377.57 410.6V408.6ZM1532 361.412C1532 387.48 1511.03 408.6 1485.18 408.6V410.6C1512.15 410.6 1534 388.571 1534 361.412H1532ZM1485.18 205.8C1511.03 205.8 1532 226.92 1532 252.988H1534C1534 225.83 1512.15 203.8 1485.18 203.8V205.8ZM1377.57 203.8C1350.6 203.8 1328.75 225.83 1328.75 252.988H1330.75C1330.75 226.92 1351.72 205.8 1377.57 205.8V203.8ZM-92 566.212V457.788H-94V566.212H-92ZM-45.1765 613.4C-71.0292 613.4 -92 592.28 -92 566.212H-94C-94 593.37 -72.1481 615.4 -45.1765 615.4V613.4ZM109.25 566.212C109.25 592.28 88.2792 613.4 62.4265 613.4V615.4C89.3981 615.4 111.25 593.37 111.25 566.212H109.25ZM62.4265 410.6C88.2793 410.6 109.25 431.72 109.25 457.788H111.25C111.25 430.63 89.3981 408.6 62.4265 408.6V410.6ZM-45.1765 408.6C-72.1481 408.6 -94 430.63 -94 457.788H-92C-92 431.72 -71.0292 410.6 -45.1765 410.6V408.6ZM158.074 613.4C132.221 613.4 111.25 592.28 111.25 566.212H109.25C109.25 593.37 131.102 615.4 158.074 615.4V613.4ZM312.5 566.212C312.5 592.28 291.529 613.4 265.676 613.4V615.4C292.648 615.4 314.5 593.37 314.5 566.212H312.5ZM265.676 410.6C291.529 410.6 312.5 431.72 312.5 457.788H314.5C314.5 430.63 292.648 408.6 265.676 408.6V410.6ZM158.074 408.6C131.102 408.6 109.25 430.63 109.25 457.788H111.25C111.25 431.72 132.221 410.6 158.074 410.6V408.6ZM361.324 613.4C335.471 613.4 314.5 592.28 314.5 566.212H312.5C312.5 593.37 334.352 615.4 361.324 615.4V613.4ZM515.75 566.212C515.75 592.28 494.779 613.4 468.927 613.4V615.4C495.898 615.4 517.75 593.37 517.75 566.212H515.75ZM468.927 410.6C494.779 410.6 515.75 431.72 515.75 457.788H517.75C517.75 430.63 495.898 408.6 468.927 408.6V410.6ZM361.324 408.6C334.352 408.6 312.5 430.63 312.5 457.788H314.5C314.5 431.72 335.471 410.6 361.324 410.6V408.6ZM564.573 613.4C538.721 613.4 517.75 592.28 517.75 566.212H515.75C515.75 593.37 537.602 615.4 564.573 615.4V613.4ZM719 566.212C719 592.28 698.029 613.4 672.176 613.4V615.4C699.148 615.4 721 593.37 721 566.212H719ZM672.176 410.6C698.029 410.6 719 431.72 719 457.788H721C721 430.63 699.148 408.6 672.176 408.6V410.6ZM564.573 408.6C537.602 408.6 515.75 430.63 515.75 457.788H517.75C517.75 431.72 538.721 410.6 564.573 410.6V408.6ZM767.823 613.4C741.971 613.4 721 592.28 721 566.212H719C719 593.37 740.852 615.4 767.823 615.4V613.4ZM922.25 566.212C922.25 592.28 901.279 613.4 875.426 613.4V615.4C902.398 615.4 924.25 593.37 924.25 566.212H922.25ZM875.426 410.6C901.279 410.6 922.25 431.72 922.25 457.788H924.25C924.25 430.63 902.398 408.6 875.426 408.6V410.6ZM767.823 408.6C740.852 408.6 719 430.63 719 457.788H721C721 431.72 741.971 410.6 767.823 410.6V408.6ZM971.074 613.4C945.221 613.4 924.25 592.28 924.25 566.212H922.25C922.25 593.37 944.102 615.4 971.074 615.4V613.4ZM1125.5 566.212C1125.5 592.28 1104.53 613.4 1078.68 613.4V615.4C1105.65 615.4 1127.5 593.37 1127.5 566.212H1125.5ZM1078.68 410.6C1104.53 410.6 1125.5 431.72 1125.5 457.788H1127.5C1127.5 430.63 1105.65 408.6 1078.68 408.6V410.6ZM971.074 408.6C944.102 408.6 922.25 430.63 922.25 457.788H924.25C924.25 431.72 945.221 410.6 971.074 410.6V408.6ZM1174.32 613.4C1148.47 613.4 1127.5 592.28 1127.5 566.212H1125.5C1125.5 593.37 1147.35 615.4 1174.32 615.4V613.4ZM1328.75 566.212C1328.75 592.28 1307.78 613.4 1281.93 613.4V615.4C1308.9 615.4 1330.75 593.37 1330.75 566.212H1328.75ZM1281.93 410.6C1307.78 410.6 1328.75 431.72 1328.75 457.788H1330.75C1330.75 430.63 1308.9 408.6 1281.93 408.6V410.6ZM1174.32 408.6C1147.35 408.6 1125.5 430.63 1125.5 457.788H1127.5C1127.5 431.72 1148.47 410.6 1174.32 410.6V408.6ZM1532 457.788V566.212H1534V457.788H1532ZM1377.57 613.4C1351.72 613.4 1330.75 592.28 1330.75 566.212H1328.75C1328.75 593.37 1350.6 615.4 1377.57 615.4V613.4ZM1532 566.212C1532 592.28 1511.03 613.4 1485.18 613.4V615.4C1512.15 615.4 1534 593.37 1534 566.212H1532ZM1485.18 410.6C1511.03 410.6 1532 431.72 1532 457.788H1534C1534 430.63 1512.15 408.6 1485.18 408.6V410.6ZM1377.57 408.6C1350.6 408.6 1328.75 430.63 1328.75 457.788H1330.75C1330.75 431.72 1351.72 410.6 1377.57 410.6V408.6ZM-92 771.012V662.588H-94V771.012H-92ZM-45.1765 818.2C-71.0292 818.2 -92 797.08 -92 771.012H-94C-94 798.171 -72.1481 820.2 -45.1765 820.2V818.2ZM109.25 771.012C109.25 797.08 88.2793 818.2 62.4265 818.2V820.2C89.3981 820.2 111.25 798.171 111.25 771.012H109.25ZM62.4265 615.4C88.2793 615.4 109.25 636.52 109.25 662.588H111.25C111.25 635.43 89.3981 613.4 62.4265 613.4V615.4ZM-45.1765 613.4C-72.1481 613.4 -94 635.43 -94 662.588H-92C-92 636.52 -71.0292 615.4 -45.1765 615.4V613.4ZM158.074 818.2C132.221 818.2 111.25 797.08 111.25 771.012H109.25C109.25 798.171 131.102 820.2 158.074 820.2V818.2ZM312.5 771.012C312.5 797.08 291.529 818.2 265.676 818.2V820.2C292.648 820.2 314.5 798.171 314.5 771.012H312.5ZM265.676 615.4C291.529 615.4 312.5 636.52 312.5 662.588H314.5C314.5 635.43 292.648 613.4 265.676 613.4V615.4ZM158.074 613.4C131.102 613.4 109.25 635.43 109.25 662.588H111.25C111.25 636.52 132.221 615.4 158.074 615.4V613.4ZM361.324 818.2C335.471 818.2 314.5 797.08 314.5 771.012H312.5C312.5 798.171 334.352 820.2 361.324 820.2V818.2ZM515.75 771.012C515.75 797.08 494.779 818.2 468.927 818.2V820.2C495.898 820.2 517.75 798.171 517.75 771.012H515.75ZM468.927 615.4C494.779 615.4 515.75 636.52 515.75 662.588H517.75C517.75 635.43 495.898 613.4 468.927 613.4V615.4ZM361.324 613.4C334.352 613.4 312.5 635.43 312.5 662.588H314.5C314.5 636.52 335.471 615.4 361.324 615.4V613.4ZM564.573 818.2C538.721 818.2 517.75 797.08 517.75 771.012H515.75C515.75 798.171 537.602 820.2 564.573 820.2V818.2ZM719 771.012C719 797.08 698.029 818.2 672.176 818.2V820.2C699.148 820.2 721 798.171 721 771.012H719ZM672.176 615.4C698.029 615.4 719 636.52 719 662.588H721C721 635.43 699.148 613.4 672.176 613.4V615.4ZM564.573 613.4C537.602 613.4 515.75 635.43 515.75 662.588H517.75C517.75 636.52 538.721 615.4 564.573 615.4V613.4ZM767.823 818.2C741.971 818.2 721 797.08 721 771.012H719C719 798.171 740.852 820.2 767.823 820.2V818.2ZM922.25 771.012C922.25 797.08 901.279 818.2 875.426 818.2V820.2C902.398 820.2 924.25 798.171 924.25 771.012H922.25ZM875.426 615.4C901.279 615.4 922.25 636.52 922.25 662.588H924.25C924.25 635.43 902.398 613.4 875.426 613.4V615.4ZM767.823 613.4C740.852 613.4 719 635.43 719 662.588H721C721 636.52 741.971 615.4 767.823 615.4V613.4ZM971.074 818.2C945.221 818.2 924.25 797.08 924.25 771.012H922.25C922.25 798.171 944.102 820.2 971.074 820.2V818.2ZM1125.5 771.012C1125.5 797.08 1104.53 818.2 1078.68 818.2V820.2C1105.65 820.2 1127.5 798.171 1127.5 771.012H1125.5ZM1078.68 615.4C1104.53 615.4 1125.5 636.52 1125.5 662.588H1127.5C1127.5 635.43 1105.65 613.4 1078.68 613.4V615.4ZM971.074 613.4C944.102 613.4 922.25 635.43 922.25 662.588H924.25C924.25 636.52 945.221 615.4 971.074 615.4V613.4ZM1174.32 818.2C1148.47 818.2 1127.5 797.08 1127.5 771.012H1125.5C1125.5 798.171 1147.35 820.2 1174.32 820.2V818.2ZM1328.75 771.012C1328.75 797.08 1307.78 818.2 1281.93 818.2V820.2C1308.9 820.2 1330.75 798.171 1330.75 771.012H1328.75ZM1281.93 615.4C1307.78 615.4 1328.75 636.52 1328.75 662.588H1330.75C1330.75 635.43 1308.9 613.4 1281.93 613.4V615.4ZM1174.32 613.4C1147.35 613.4 1125.5 635.43 1125.5 662.588H1127.5C1127.5 636.52 1148.47 615.4 1174.32 615.4V613.4ZM1532 662.588V771.012H1534V662.588H1532ZM1377.57 818.2C1351.72 818.2 1330.75 797.08 1330.75 771.012H1328.75C1328.75 798.171 1350.6 820.2 1377.57 820.2V818.2ZM1532 771.012C1532 797.08 1511.03 818.2 1485.18 818.2V820.2C1512.15 820.2 1534 798.171 1534 771.012H1532ZM1485.18 615.4C1511.03 615.4 1532 636.52 1532 662.588H1534C1534 635.43 1512.15 613.4 1485.18 613.4V615.4ZM1377.57 613.4C1350.6 613.4 1328.75 635.43 1328.75 662.588H1330.75C1330.75 636.52 1351.72 615.4 1377.57 615.4V613.4ZM62.4265 1023H-45.1765V1025H62.4265V1023ZM-92 975.812V867.388H-94V975.812H-92ZM-45.1765 1023C-71.0292 1023 -92 1001.88 -92 975.812H-94C-94 1002.97 -72.1481 1025 -45.1765 1025V1023ZM109.25 975.812C109.25 1001.88 88.2793 1023 62.4265 1023V1025C89.3981 1025 111.25 1002.97 111.25 975.812H109.25ZM62.4265 820.2C88.2793 820.2 109.25 841.32 109.25 867.388H111.25C111.25 840.23 89.3981 818.2 62.4265 818.2V820.2ZM-45.1765 818.2C-72.1481 818.2 -94 840.23 -94 867.388H-92C-92 841.32 -71.0292 820.2 -45.1765 820.2V818.2ZM265.676 1023H158.074V1025H265.676V1023ZM158.074 1023C132.221 1023 111.25 1001.88 111.25 975.812H109.25C109.25 1002.97 131.102 1025 158.074 1025V1023ZM312.5 975.812C312.5 1001.88 291.529 1023 265.676 1023V1025C292.648 1025 314.5 1002.97 314.5 975.812H312.5ZM265.676 820.2C291.529 820.2 312.5 841.32 312.5 867.388H314.5C314.5 840.23 292.648 818.2 265.676 818.2V820.2ZM158.074 818.2C131.102 818.2 109.25 840.23 109.25 867.388H111.25C111.25 841.32 132.221 820.2 158.074 820.2V818.2ZM468.927 1023H361.324V1025H468.927V1023ZM361.324 1023C335.471 1023 314.5 1001.88 314.5 975.812H312.5C312.5 1002.97 334.352 1025 361.324 1025V1023ZM515.75 975.812C515.75 1001.88 494.779 1023 468.927 1023V1025C495.898 1025 517.75 1002.97 517.75 975.812H515.75ZM468.927 820.2C494.779 820.2 515.75 841.32 515.75 867.388H517.75C517.75 840.23 495.898 818.2 468.927 818.2V820.2ZM361.324 818.2C334.352 818.2 312.5 840.23 312.5 867.388H314.5C314.5 841.32 335.471 820.2 361.324 820.2V818.2ZM672.176 1023H564.573V1025H672.176V1023ZM564.573 1023C538.721 1023 517.75 1001.88 517.75 975.812H515.75C515.75 1002.97 537.602 1025 564.573 1025V1023ZM719 975.812C719 1001.88 698.029 1023 672.176 1023V1025C699.148 1025 721 1002.97 721 975.812H719ZM672.176 820.2C698.029 820.2 719 841.32 719 867.388H721C721 840.23 699.148 818.2 672.176 818.2V820.2ZM564.573 818.2C537.602 818.2 515.75 840.23 515.75 867.388H517.75C517.75 841.32 538.721 820.2 564.573 820.2V818.2ZM875.426 1023H767.823V1025H875.426V1023ZM767.823 1023C741.971 1023 721 1001.88 721 975.812H719C719 1002.97 740.852 1025 767.823 1025V1023ZM922.25 975.812C922.25 1001.88 901.279 1023 875.426 1023V1025C902.398 1025 924.25 1002.97 924.25 975.812H922.25ZM875.426 820.2C901.279 820.2 922.25 841.32 922.25 867.388H924.25C924.25 840.23 902.398 818.2 875.426 818.2V820.2ZM767.823 818.2C740.852 818.2 719 840.23 719 867.388H721C721 841.32 741.971 820.2 767.823 820.2V818.2ZM1078.68 1023H971.074V1025H1078.68V1023ZM971.074 1023C945.221 1023 924.25 1001.88 924.25 975.812H922.25C922.25 1002.97 944.102 1025 971.074 1025V1023ZM1125.5 975.812C1125.5 1001.88 1104.53 1023 1078.68 1023V1025C1105.65 1025 1127.5 1002.97 1127.5 975.812H1125.5ZM1078.68 820.2C1104.53 820.2 1125.5 841.32 1125.5 867.388H1127.5C1127.5 840.23 1105.65 818.2 1078.68 818.2V820.2ZM971.074 818.2C944.102 818.2 922.25 840.23 922.25 867.388H924.25C924.25 841.32 945.221 820.2 971.074 820.2V818.2ZM1281.93 1023H1174.32V1025H1281.93V1023ZM1174.32 1023C1148.47 1023 1127.5 1001.88 1127.5 975.812H1125.5C1125.5 1002.97 1147.35 1025 1174.32 1025V1023ZM1328.75 975.812C1328.75 1001.88 1307.78 1023 1281.93 1023V1025C1308.9 1025 1330.75 1002.97 1330.75 975.812H1328.75ZM1281.93 820.2C1307.78 820.2 1328.75 841.32 1328.75 867.388H1330.75C1330.75 840.23 1308.9 818.2 1281.93 818.2V820.2ZM1174.32 818.2C1147.35 818.2 1125.5 840.23 1125.5 867.388H1127.5C1127.5 841.32 1148.47 820.2 1174.32 820.2V818.2ZM1532 867.388V975.812H1534V867.388H1532ZM1485.18 1023H1377.57V1025H1485.18V1023ZM1377.57 1023C1351.72 1023 1330.75 1001.88 1330.75 975.812H1328.75C1328.75 1002.97 1350.6 1025 1377.57 1025V1023ZM1532 975.812C1532 1001.88 1511.03 1023 1485.18 1023V1025C1512.15 1025 1534 1002.97 1534 975.812H1532ZM1485.18 820.2C1511.03 820.2 1532 841.32 1532 867.388H1534C1534 840.23 1512.15 818.2 1485.18 818.2V820.2ZM1377.57 818.2C1350.6 818.2 1328.75 840.23 1328.75 867.388H1330.75C1330.75 841.32 1351.72 820.2 1377.57 820.2V818.2Z" fill="url(#paint0_linear_19_158)" mask="url(#path-1-inside-1_19_158)"/>
<defs>
<linearGradient id="paint0_linear_19_158" x1="1533" y1="0" x2="1533" y2="1024" gradientUnits="userSpaceOnUse">
<stop offset="0.04" stop-color="#463ACB" stop-opacity="0.02"/>
<stop offset="0.493381" stop-color="#463ACB" stop-opacity="0.5"/>
<stop offset="0.96" stop-color="#463ACB" stop-opacity="0.02"/>
</linearGradient>
</defs>
</svg>
